Patient4_TMGait_0pt4_02_left_04_GRF.mot
version=1
nRows=45
nColumns=19
inDegrees=no
endheader
time	F1x	F1y	F1z	M1x	M1y	M1z	F2x	F2y	F2z	M2x	M2y	M2z	EC1x	EC1y	EC1z	EC2x	EC2y	EC2z
5.27	1.501	17.4255	6.0235	-5.0568	-3.4446	15.8819	-48.4462	706.5935	-68.0341	260.0763	94.9014	791.7192	-0.0592	0.0182	-0.0073	-0.0462	0.0165	0.9585
5.2837	1.1932	12.3994	4.1225	-3.6718	-2.3517	11.4152	-40.112	703.239	-66.5912	258.7128	90.5873	789.814	-0.0592	0.0182	-0.0073	-0.0462	0.0165	0.9585
5.2974	0.86234	8.2195	2.4959	-2.5173	-1.4355	7.7483	-32.7497	702.6824	-65.2541	258.3929	86.6472	790.1393	-0.0592	0.0182	-0.0073	-0.0462	0.0165	0.9585
5.3111	0.55185	5.1183	1.2449	-1.6581	-0.74878	5.0734	-26.8087	705.9545	-64.1714	259.4986	83.4028	793.7218	-0.0592	0.0182	-0.0073	-0.0462	0.0165	0.9585
5.3249	0.30506	3.0395	0.37178	-1.0801	-0.28181	3.3011	-22.362	713.387	-63.4525	262.1534	81.0047	800.9827	-0.0592	0.0182	-0.0073	-0.0462	0.0165	0.9585
5.3386	0.10755	1.8104	-0.17218	-0.73331	-0.0070835	2.2783	-19.2729	724.6137	-63.1099	266.2194	79.4259	811.6636	-0.0592	0.0182	-0.0073	-0.0462	0.0165	0.9585
5.3523	-0.045268	1.1928	-0.46452	-0.55038	0.12437	1.7832	-17.3019	738.6333	-63.1095	271.3244	78.5491	824.8352	-0.0592	0.0182	-0.0073	-0.0462	0.0165	0.9585
5.366	-0.16657	0.91741	-0.57359	-0.45609	0.15036	1.5553	-16.2143	753.9904	-63.3383	276.9299	78.1754	839.0782	-0.0592	0.0182	-0.0073	-0.0462	0.0165	0.9585
5.3797	-0.28624	0.74982	-0.56926	-0.38267	0.10707	1.3774	-15.7915	769.0054	-63.6781	282.4137	78.1058	852.7139	-0.0592	0.0182	-0.0073	-0.0462	0.0165	0.9585
5.3934	-0.40524	0.466	-0.5061	-0.26069	0.030948	1.0144	-15.8325	782.0336	-63.9839	287.1698	78.1238	864.0723	-0.0592	0.0182	-0.0073	-0.0462	0.0165	0.9585
5.4071	-0.53653	-0.11584	-0.42788	-0.028854	-0.048436	0.28422	-16.166	791.709	-64.1483	290.6968	78.0576	871.7591	-0.0592	0.0182	-0.0073	-0.0462	0.0165	0.9585
5.4209	-0.66907	-1.138	-0.37232	0.36013	-0.096791	-0.97074	-16.5948	797.1054	-64.078	292.6575	77.7455	874.8001	-0.0592	0.0182	-0.0073	-0.0462	0.0165	0.9585
5.4346	-0.76944	-2.669	-0.3439	0.92811	-0.10468	-2.8222	-16.9218	797.7677	-63.7433	292.8826	77.0893	872.7046	-0.0592	0.0182	-0.0073	-0.0462	0.0165	0.9585
5.4483	-0.792	-4.6595	-0.36485	1.6551	-0.039192	-5.2039	-16.9292	793.6693	-63.168	291.3581	76.0406	865.4098	-0.0592	0.0182	-0.0073	-0.0462	0.0165	0.9585
5.462	-0.6556	-6.9082	-0.42554	2.4679	0.11905	-7.8883	-16.4073	785.2073	-62.4338	288.2208	74.6133	853.2926	-0.0592	0.0182	-0.0073	-0.0462	0.0165	0.9585
5.4757	-0.27423	-8.955	-0.54281	3.2022	0.42096	-10.3378	-15.1803	773.1592	-61.6505	283.7448	72.8601	837.127	-0.0592	0.0182	-0.0073	-0.0462	0.0165	0.9585
5.4894	0.46719	-10.0433	-0.70745	3.5858	0.90382	-11.6664	-13.0981	758.559	-60.9325	278.3035	70.847	817.953	-0.0592	0.0182	-0.0073	-0.0462	0.0165	0.9585
5.5031	1.6971	-9.0277	-0.92323	3.2077	1.6137	-10.5315	-10.0959	742.6095	-60.3811	272.3329	68.6539	797.0242	-0.0592	0.0182	-0.0073	-0.0462	0.0165	0.9585
5.5169	3.5091	-4.3325	-1.167	1.5055	2.5549	-5.0747	-6.1838	726.4675	-60.0568	266.2579	66.3472	775.5736	-0.0592	0.0182	-0.0073	-0.0462	0.0165	0.9585
5.5306	5.951	5.9918	-1.3873	-2.2176	3.6778	6.9965	-1.495	711.028	-59.9786	260.4103	63.9964	754.6172	-0.0592	0.0182	-0.0073	-0.0462	0.0165	0.9585
5.5443	8.9223	24.0921	-1.5012	-8.7245	4.8409	28.2332	3.719	696.7251	-60.0847	254.9565	61.6395	734.7633	-0.0592	0.0182	-0.0073	-0.0462	0.0165	0.9585
5.558	12.1047	51.9044	-1.3751	-18.6966	5.7661	60.941	9.0945	683.348	-60.2437	249.8325	59.2858	716.0086	-0.0592	0.0182	-0.0073	-0.0462	0.0165	0.9585
5.5717	14.8381	90.4906	-0.84143	-32.498	6.0114	106.3915	14.1587	669.9918	-60.2348	244.7243	56.8904	697.676	-0.0592	0.0182	-0.0073	-0.0462	0.0165	0.9585
5.5854	16.0109	138.9904	0.32625	-49.8038	4.9115	163.6067	18.449	655.1851	-59.79	239.1122	54.3712	678.4948	-0.0592	0.0182	-0.0073	-0.0462	0.0165	0.9585
5.5991	14.2674	193.4816	2.3682	-69.194	1.7055	228.0124	21.59	637.2884	-58.6283	232.4116	51.6082	656.9739	-0.0592	0.0182	-0.0073	-0.0462	0.0165	0.9585
5.6129	9.418	247.2314	5.6342	-88.2384	-4.0447	291.7137	23.4038	615.0699	-56.5799	224.1835	48.5167	631.9334	-0.0592	0.0182	-0.0073	-0.0462	0.0165	0.9585
5.6266	2.9039	294.6022	10.2019	-104.9193	-11.8445	347.9197	24.0222	588.2688	-53.6709	214.3377	45.0977	603.0431	-0.0592	0.0182	-0.0073	-0.0462	0.0165	0.9585
5.6403	-3.8145	334.0215	15.1781	-118.7063	-20.1594	394.5473	23.7791	557.6004	-50.1744	203.1205	41.5118	570.8734	-0.0592	0.0182	-0.0073	-0.0462	0.0165	0.9585
5.654	-9.663	366.1395	20.1109	-129.8719	-28.0323	432.2686	23.0808	523.9642	-46.4813	190.8472	37.9936	536.1268	-0.0592	0.0182	-0.0073	-0.0462	0.0165	0.9585
5.6677	-14.113	392.5151	24.3513	-139.0235	-34.5516	462.8531	22.1905	488.0691	-42.8017	177.7662	34.6332	499.3471	-0.0592	0.0182	-0.0073	-0.0462	0.0165	0.9585
5.6814	-17.1535	414.7547	27.7215	-146.7565	-39.4737	488.2378	21.247	450.3332	-39.1847	164.0265	31.3991	460.8232	-0.0592	0.0182	-0.0073	-0.0462	0.0165	0.9585
5.6951	-18.832	434.2682	30.0376	-153.589	-42.6351	510.0025	20.2793	411.0128	-35.5677	149.7203	28.1955	420.7259	-0.0592	0.0182	-0.0073	-0.0462	0.0165	0.9585
5.7089	-19.2981	452.5192	31.6149	-160.0141	-44.4342	529.8411	19.1852	370.3231	-31.8976	134.9192	24.9868	379.2439	-0.0592	0.0182	-0.0073	-0.0462	0.0165	0.9585
5.7226	-18.6556	471.0899	32.8202	-166.5518	-45.3517	549.5475	17.8112	328.5158	-28.1525	119.7105	21.7961	336.6073	-0.0592	0.0182	-0.0073	-0.0462	0.0165	0.9585
5.7363	-17.0748	491.4347	34.2133	-173.6688	-46.0888	570.7855	15.9362	286.0626	-24.3781	104.2563	18.7407	293.3088	-0.0592	0.0182	-0.0073	-0.0462	0.0165	0.9585
5.75	-14.9114	514.6251	36.2274	-181.7002	-47.2695	594.8079	13.4313	243.7058	-20.6468	88.8216	15.943	250.1072	-0.0592	0.0182	-0.0073	-0.0462	0.0165	0.9585
5.7637	-12.4786	541.3293	39.1527	-190.8585	-49.3372	622.3762	10.2791	202.4724	-17.0749	73.7803	13.5282	208.047	-0.0592	0.0182	-0.0073	-0.0462	0.0165	0.9585
5.7774	-10.0773	571.9034	42.9755	-201.2581	-52.3855	653.9376	6.6305	163.5971	-13.7764	59.584	11.557	168.3799	-0.0592	0.0182	-0.0073	-0.0462	0.0165	0.9585
5.7911	-7.8754	606.0054	47.4101	-212.7935	-56.1694	689.117	2.8518	128.2773	-10.8534	46.6748	10.0028	132.2954	-0.0592	0.0182	-0.0073	-0.0462	0.0165	0.9585
5.8049	-5.985	642.4686	52.1861	-225.0714	-60.4218	726.6323	-0.683	97.4275	-8.357	35.3912	8.7767	100.7305	-0.0592	0.0182	-0.0073	-0.0462	0.0165	0.9585
5.8186	-4.4824	679.4759	56.9542	-237.4792	-64.7859	764.4967	-3.6268	71.4529	-6.2806	25.8927	7.7467	74.0868	-0.0592	0.0182	-0.0073	-0.0462	0.0165	0.9585
5.8323	-3.3798	714.9188	61.4984	-249.3024	-69.0199	800.4272	-5.7506	50.3026	-4.5828	18.1687	6.7883	52.3262	-0.0592	0.0182	-0.0073	-0.0462	0.0165	0.9585
5.846	-2.6902	746.8604	65.5277	-259.8929	-72.8162	832.3619	-6.9551	33.6163	-3.2077	12.0896	5.8106	35.112	-0.0592	0.0182	-0.0073	-0.0462	0.0165	0.9585
5.8597	-2.3809	773.8046	68.8789	-268.7577	-75.986	858.7367	-7.1982	20.8321	-2.1092	7.4516	4.7626	21.8755	-0.0592	0.0182	-0.0073	-0.0462	0.0165	0.9585
5.8734	-2.3978	794.8341	71.3391	-275.6086	-78.2884	878.6092	-6.5808	11.401	-1.248	4.0464	3.6492	12.0803	-0.0592	0.0182	-0.0073	-0.0462	0.0165	0.9585
